<mxfile host="app.diagrams.net" modified="2020-06-24T13:33:54.180Z" agent="5.0 (Macintosh)" etag="uPurk9RHxOi84eEbo_tX" version="13.3.2" type="github" pages="4">
  <diagram id="C5RBs43oDa-KdzZeNtuy" name="Onboarding">
    <mxGraphModel dx="786" dy="528" grid="1" gridSize="10" guides="1" tooltips="1" connect="1" arrows="1" fold="1" page="1" pageScale="1" pageWidth="827" pageHeight="1169" math="0" shadow="0">
      <root>
        <mxCell id="WIyWlLk6GJQsqaUBKTNV-0" />
        <mxCell id="WIyWlLk6GJQsqaUBKTNV-1" parent="WIyWlLk6GJQsqaUBKTNV-0" />
        <mxCell id="WIyWlLk6GJQsqaUBKTNV-2" value="" style="rounded=0;html=1;jettySize=auto;orthogonalLoop=1;fontSize=11;endArrow=block;endFill=0;endSize=8;strokeWidth=1;shadow=0;labelBackgroundColor=none;edgeStyle=orthogonalEdgeStyle;" parent="WIyWlLk6GJQsqaUBKTNV-1" source="WIyWlLk6GJQsqaUBKTNV-3" target="WIyWlLk6GJQsqaUBKTNV-6" edge="1">
          <mxGeometry relative="1" as="geometry" />
        </mxCell>
        <mxCell id="WIyWlLk6GJQsqaUBKTNV-3" value="Lands on app page" style="rounded=1;whiteSpace=wrap;html=1;fontSize=12;glass=0;strokeWidth=1;shadow=0;arcSize=15;" parent="WIyWlLk6GJQsqaUBKTNV-1" vertex="1">
          <mxGeometry x="160" y="60" width="120" height="40" as="geometry" />
        </mxCell>
        <mxCell id="JS3uk803y2s0mCCQWYtb-3" value="No" style="edgeStyle=orthogonalEdgeStyle;rounded=0;orthogonalLoop=1;jettySize=auto;html=1;entryX=0;entryY=0.5;entryDx=0;entryDy=0;labelPosition=center;verticalLabelPosition=middle;align=center;verticalAlign=middle;endArrow=block;endFill=0;" parent="WIyWlLk6GJQsqaUBKTNV-1" source="WIyWlLk6GJQsqaUBKTNV-6" target="WIyWlLk6GJQsqaUBKTNV-10" edge="1">
          <mxGeometry relative="1" as="geometry" />
        </mxCell>
        <mxCell id="JS3uk803y2s0mCCQWYtb-18" value="&lt;div&gt;Yes&lt;/div&gt;" style="edgeStyle=orthogonalEdgeStyle;rounded=0;orthogonalLoop=1;jettySize=auto;html=1;endArrow=block;endFill=0;entryX=0.5;entryY=0;entryDx=0;entryDy=0;" parent="WIyWlLk6GJQsqaUBKTNV-1" source="WIyWlLk6GJQsqaUBKTNV-6" target="JS3uk803y2s0mCCQWYtb-21" edge="1">
          <mxGeometry relative="1" as="geometry">
            <mxPoint x="220" y="280" as="targetPoint" />
          </mxGeometry>
        </mxCell>
        <mxCell id="WIyWlLk6GJQsqaUBKTNV-6" value="Is logged in?" style="rhombus;whiteSpace=wrap;html=1;shadow=0;fontFamily=Helvetica;fontSize=12;align=center;strokeWidth=1;spacing=6;spacingTop=-4;" parent="WIyWlLk6GJQsqaUBKTNV-1" vertex="1">
          <mxGeometry x="170" y="160" width="100" height="80" as="geometry" />
        </mxCell>
        <mxCell id="JS3uk803y2s0mCCQWYtb-7" value="&lt;div&gt;No&lt;/div&gt;" style="edgeStyle=orthogonalEdgeStyle;rounded=0;orthogonalLoop=1;jettySize=auto;html=1;endArrow=block;endFill=0;labelPosition=center;verticalLabelPosition=middle;align=center;verticalAlign=middle;" parent="WIyWlLk6GJQsqaUBKTNV-1" source="WIyWlLk6GJQsqaUBKTNV-10" target="WIyWlLk6GJQsqaUBKTNV-11" edge="1">
          <mxGeometry relative="1" as="geometry" />
        </mxCell>
        <mxCell id="JS3uk803y2s0mCCQWYtb-15" value="Yes" style="edgeStyle=orthogonalEdgeStyle;rounded=0;orthogonalLoop=1;jettySize=auto;html=1;entryX=0.5;entryY=0;entryDx=0;entryDy=0;endArrow=block;endFill=0;" parent="WIyWlLk6GJQsqaUBKTNV-1" source="WIyWlLk6GJQsqaUBKTNV-10" target="JS3uk803y2s0mCCQWYtb-12" edge="1">
          <mxGeometry relative="1" as="geometry" />
        </mxCell>
        <mxCell id="WIyWlLk6GJQsqaUBKTNV-10" value="Has profile?" style="rhombus;whiteSpace=wrap;html=1;shadow=0;fontFamily=Helvetica;fontSize=12;align=center;strokeWidth=1;spacing=6;spacingTop=-4;" parent="WIyWlLk6GJQsqaUBKTNV-1" vertex="1">
          <mxGeometry x="350" y="160" width="100" height="80" as="geometry" />
        </mxCell>
        <mxCell id="JS3uk803y2s0mCCQWYtb-16" style="edgeStyle=orthogonalEdgeStyle;rounded=0;orthogonalLoop=1;jettySize=auto;html=1;entryX=1;entryY=0.5;entryDx=0;entryDy=0;endArrow=block;endFill=0;exitX=0.5;exitY=1;exitDx=0;exitDy=0;" parent="WIyWlLk6GJQsqaUBKTNV-1" source="WIyWlLk6GJQsqaUBKTNV-11" target="JS3uk803y2s0mCCQWYtb-12" edge="1">
          <mxGeometry relative="1" as="geometry" />
        </mxCell>
        <mxCell id="WIyWlLk6GJQsqaUBKTNV-11" value="Create profile" style="rounded=1;whiteSpace=wrap;html=1;fontSize=12;glass=0;strokeWidth=1;shadow=0;arcSize=0;" parent="WIyWlLk6GJQsqaUBKTNV-1" vertex="1">
          <mxGeometry x="540" y="180" width="120" height="40" as="geometry" />
        </mxCell>
        <mxCell id="JS3uk803y2s0mCCQWYtb-19" style="edgeStyle=orthogonalEdgeStyle;rounded=0;orthogonalLoop=1;jettySize=auto;html=1;endArrow=block;endFill=0;entryX=1;entryY=0.5;entryDx=0;entryDy=0;" parent="WIyWlLk6GJQsqaUBKTNV-1" source="JS3uk803y2s0mCCQWYtb-12" target="JS3uk803y2s0mCCQWYtb-21" edge="1">
          <mxGeometry relative="1" as="geometry">
            <mxPoint x="280" y="320" as="targetPoint" />
          </mxGeometry>
        </mxCell>
        <mxCell id="JS3uk803y2s0mCCQWYtb-12" value="&lt;div&gt;Login&lt;/div&gt;" style="rounded=1;whiteSpace=wrap;html=1;arcSize=0;" parent="WIyWlLk6GJQsqaUBKTNV-1" vertex="1">
          <mxGeometry x="340" y="300" width="120" height="40" as="geometry" />
        </mxCell>
        <mxCell id="JS3uk803y2s0mCCQWYtb-26" value="" style="edgeStyle=orthogonalEdgeStyle;rounded=0;orthogonalLoop=1;jettySize=auto;html=1;endArrow=block;endFill=0;" parent="WIyWlLk6GJQsqaUBKTNV-1" source="JS3uk803y2s0mCCQWYtb-21" target="JS3uk803y2s0mCCQWYtb-25" edge="1">
          <mxGeometry relative="1" as="geometry" />
        </mxCell>
        <mxCell id="JS3uk803y2s0mCCQWYtb-21" value="Select database (context)" style="rounded=1;whiteSpace=wrap;html=1;arcSize=0;" parent="WIyWlLk6GJQsqaUBKTNV-1" vertex="1">
          <mxGeometry x="160" y="300" width="120" height="40" as="geometry" />
        </mxCell>
        <mxCell id="JS3uk803y2s0mCCQWYtb-28" value="&lt;div&gt;Yes&lt;/div&gt;" style="edgeStyle=orthogonalEdgeStyle;rounded=0;orthogonalLoop=1;jettySize=auto;html=1;endArrow=block;endFill=0;" parent="WIyWlLk6GJQsqaUBKTNV-1" source="JS3uk803y2s0mCCQWYtb-25" target="JS3uk803y2s0mCCQWYtb-27" edge="1">
          <mxGeometry relative="1" as="geometry" />
        </mxCell>
        <mxCell id="JS3uk803y2s0mCCQWYtb-30" value="No" style="edgeStyle=orthogonalEdgeStyle;rounded=0;orthogonalLoop=1;jettySize=auto;html=1;endArrow=block;endFill=0;" parent="WIyWlLk6GJQsqaUBKTNV-1" source="JS3uk803y2s0mCCQWYtb-25" target="JS3uk803y2s0mCCQWYtb-29" edge="1">
          <mxGeometry relative="1" as="geometry" />
        </mxCell>
        <mxCell id="JS3uk803y2s0mCCQWYtb-25" value="Has DB?" style="rhombus;whiteSpace=wrap;html=1;fontFamily=Helvetica;fontSize=12;fontColor=#000000;align=center;strokeColor=#000000;fillColor=#ffffff;" parent="WIyWlLk6GJQsqaUBKTNV-1" vertex="1">
          <mxGeometry x="170" y="400" width="100" height="80" as="geometry" />
        </mxCell>
        <mxCell id="JS3uk803y2s0mCCQWYtb-33" style="edgeStyle=orthogonalEdgeStyle;rounded=0;orthogonalLoop=1;jettySize=auto;html=1;endArrow=block;endFill=0;exitX=0.452;exitY=0;exitDx=0;exitDy=0;exitPerimeter=0;entryX=0.5;entryY=0;entryDx=0;entryDy=0;" parent="WIyWlLk6GJQsqaUBKTNV-1" source="JS3uk803y2s0mCCQWYtb-29" target="JS3uk803y2s0mCCQWYtb-25" edge="1">
          <mxGeometry relative="1" as="geometry">
            <mxPoint x="282" y="370" as="targetPoint" />
          </mxGeometry>
        </mxCell>
        <mxCell id="JS3uk803y2s0mCCQWYtb-29" value="Create new DB" style="rounded=0;whiteSpace=wrap;html=1;fontFamily=Helvetica;fontSize=12;fontColor=#000000;align=center;strokeColor=#000000;fillColor=#ffffff;" parent="WIyWlLk6GJQsqaUBKTNV-1" vertex="1">
          <mxGeometry x="344" y="420" width="126" height="40" as="geometry" />
        </mxCell>
        <mxCell id="JS3uk803y2s0mCCQWYtb-34" style="edgeStyle=orthogonalEdgeStyle;rounded=0;orthogonalLoop=1;jettySize=auto;html=1;entryX=0.5;entryY=0;entryDx=0;entryDy=0;endArrow=block;endFill=0;" parent="WIyWlLk6GJQsqaUBKTNV-1" source="JS3uk803y2s0mCCQWYtb-27" target="JS3uk803y2s0mCCQWYtb-23" edge="1">
          <mxGeometry relative="1" as="geometry" />
        </mxCell>
        <mxCell id="JS3uk803y2s0mCCQWYtb-27" value="Select DB" style="rounded=0;whiteSpace=wrap;html=1;fontFamily=Helvetica;fontSize=12;fontColor=#000000;align=center;strokeColor=#000000;fillColor=#ffffff;" parent="WIyWlLk6GJQsqaUBKTNV-1" vertex="1">
          <mxGeometry x="150" y="545" width="140" height="40" as="geometry" />
        </mxCell>
        <mxCell id="JS3uk803y2s0mCCQWYtb-23" value="&lt;div&gt;Show dashboard&lt;/div&gt;&lt;div&gt;(DB context)&lt;br&gt;&lt;/div&gt;" style="rounded=1;whiteSpace=wrap;html=1;fontFamily=Helvetica;fontSize=12;fontColor=#000000;align=center;strokeColor=#000000;fillColor=#ffffff;" parent="WIyWlLk6GJQsqaUBKTNV-1" vertex="1">
          <mxGeometry x="150" y="660" width="140" height="40" as="geometry" />
        </mxCell>
      </root>
    </mxGraphModel>
  </diagram>
  <diagram id="yK5Ir9c2h8IHAHALxQX2" name="Create Event">
    <mxGraphModel dx="786" dy="528" grid="1" gridSize="10" guides="1" tooltips="1" connect="1" arrows="1" fold="1" page="1" pageScale="1" pageWidth="827" pageHeight="1169" math="0" shadow="0">
      <root>
        <mxCell id="13vMHOXOfkEj0Niq7ip8-0" />
        <mxCell id="13vMHOXOfkEj0Niq7ip8-1" parent="13vMHOXOfkEj0Niq7ip8-0" />
        <mxCell id="13vMHOXOfkEj0Niq7ip8-4" value="" style="edgeStyle=orthogonalEdgeStyle;rounded=0;orthogonalLoop=1;jettySize=auto;html=1;" edge="1" parent="13vMHOXOfkEj0Niq7ip8-1" source="13vMHOXOfkEj0Niq7ip8-2" target="13vMHOXOfkEj0Niq7ip8-3">
          <mxGeometry relative="1" as="geometry" />
        </mxCell>
        <mxCell id="13vMHOXOfkEj0Niq7ip8-2" value="New event" style="rounded=0;whiteSpace=wrap;html=1;fontFamily=Helvetica;fontSize=12;fontColor=#000000;align=center;strokeColor=#000000;fillColor=#ffffff;" vertex="1" parent="13vMHOXOfkEj0Niq7ip8-1">
          <mxGeometry x="190" y="140" width="130" height="40" as="geometry" />
        </mxCell>
        <mxCell id="noNu07vXeeJlccaK-xQh-0" style="edgeStyle=orthogonalEdgeStyle;rounded=0;orthogonalLoop=1;jettySize=auto;html=1;entryX=0.5;entryY=0;entryDx=0;entryDy=0;" edge="1" parent="13vMHOXOfkEj0Niq7ip8-1" source="C_hMBdeCww2UABaGfEO--0" target="13vMHOXOfkEj0Niq7ip8-2">
          <mxGeometry relative="1" as="geometry" />
        </mxCell>
        <mxCell id="C_hMBdeCww2UABaGfEO--0" value="Dashboard" style="rounded=1;whiteSpace=wrap;html=1;" vertex="1" parent="13vMHOXOfkEj0Niq7ip8-1">
          <mxGeometry x="190" y="20" width="130" height="40" as="geometry" />
        </mxCell>
        <mxCell id="13vMHOXOfkEj0Niq7ip8-6" value="" style="edgeStyle=orthogonalEdgeStyle;rounded=0;orthogonalLoop=1;jettySize=auto;html=1;" edge="1" parent="13vMHOXOfkEj0Niq7ip8-1" source="13vMHOXOfkEj0Niq7ip8-3" target="13vMHOXOfkEj0Niq7ip8-5">
          <mxGeometry relative="1" as="geometry" />
        </mxCell>
        <mxCell id="13vMHOXOfkEj0Niq7ip8-15" style="edgeStyle=orthogonalEdgeStyle;rounded=0;orthogonalLoop=1;jettySize=auto;html=1;entryX=0.5;entryY=0;entryDx=0;entryDy=0;" edge="1" parent="13vMHOXOfkEj0Niq7ip8-1" source="13vMHOXOfkEj0Niq7ip8-3" target="13vMHOXOfkEj0Niq7ip8-9">
          <mxGeometry relative="1" as="geometry" />
        </mxCell>
        <mxCell id="13vMHOXOfkEj0Niq7ip8-3" value="Select members" style="rounded=0;whiteSpace=wrap;html=1;fontFamily=Helvetica;fontSize=12;fontColor=#000000;align=center;strokeColor=#000000;fillColor=#ffffff;" vertex="1" parent="13vMHOXOfkEj0Niq7ip8-1">
          <mxGeometry x="190" y="260" width="130" height="40" as="geometry" />
        </mxCell>
        <mxCell id="13vMHOXOfkEj0Niq7ip8-8" value="" style="edgeStyle=orthogonalEdgeStyle;rounded=0;orthogonalLoop=1;jettySize=auto;html=1;" edge="1" parent="13vMHOXOfkEj0Niq7ip8-1" source="13vMHOXOfkEj0Niq7ip8-5" target="13vMHOXOfkEj0Niq7ip8-7">
          <mxGeometry relative="1" as="geometry" />
        </mxCell>
        <mxCell id="13vMHOXOfkEj0Niq7ip8-14" style="edgeStyle=orthogonalEdgeStyle;rounded=0;orthogonalLoop=1;jettySize=auto;html=1;entryX=0.5;entryY=0;entryDx=0;entryDy=0;" edge="1" parent="13vMHOXOfkEj0Niq7ip8-1" source="13vMHOXOfkEj0Niq7ip8-5" target="13vMHOXOfkEj0Niq7ip8-9">
          <mxGeometry relative="1" as="geometry" />
        </mxCell>
        <mxCell id="13vMHOXOfkEj0Niq7ip8-5" value="Confirm date" style="rounded=0;whiteSpace=wrap;html=1;fontFamily=Helvetica;fontSize=12;fontColor=#000000;align=center;strokeColor=#000000;fillColor=#ffffff;" vertex="1" parent="13vMHOXOfkEj0Niq7ip8-1">
          <mxGeometry x="190" y="380" width="130" height="40" as="geometry" />
        </mxCell>
        <mxCell id="13vMHOXOfkEj0Niq7ip8-10" value="" style="edgeStyle=orthogonalEdgeStyle;rounded=0;orthogonalLoop=1;jettySize=auto;html=1;" edge="1" parent="13vMHOXOfkEj0Niq7ip8-1" source="13vMHOXOfkEj0Niq7ip8-7" target="13vMHOXOfkEj0Niq7ip8-9">
          <mxGeometry relative="1" as="geometry" />
        </mxCell>
        <mxCell id="13vMHOXOfkEj0Niq7ip8-12" value="" style="edgeStyle=orthogonalEdgeStyle;rounded=0;orthogonalLoop=1;jettySize=auto;html=1;" edge="1" parent="13vMHOXOfkEj0Niq7ip8-1" source="13vMHOXOfkEj0Niq7ip8-7" target="13vMHOXOfkEj0Niq7ip8-11">
          <mxGeometry relative="1" as="geometry" />
        </mxCell>
        <mxCell id="13vMHOXOfkEj0Niq7ip8-7" value="Enter location" style="rounded=0;whiteSpace=wrap;html=1;fontFamily=Helvetica;fontSize=12;fontColor=#000000;align=center;strokeColor=#000000;fillColor=#ffffff;" vertex="1" parent="13vMHOXOfkEj0Niq7ip8-1">
          <mxGeometry x="190" y="500" width="130" height="40" as="geometry" />
        </mxCell>
        <mxCell id="13vMHOXOfkEj0Niq7ip8-13" style="edgeStyle=orthogonalEdgeStyle;rounded=0;orthogonalLoop=1;jettySize=auto;html=1;entryX=0;entryY=0.5;entryDx=0;entryDy=0;" edge="1" parent="13vMHOXOfkEj0Niq7ip8-1" source="13vMHOXOfkEj0Niq7ip8-11" target="13vMHOXOfkEj0Niq7ip8-9">
          <mxGeometry relative="1" as="geometry" />
        </mxCell>
        <mxCell id="13vMHOXOfkEj0Niq7ip8-11" value="Enter notes" style="rounded=0;whiteSpace=wrap;html=1;fontFamily=Helvetica;fontSize=12;fontColor=#000000;align=center;strokeColor=#000000;fillColor=#ffffff;" vertex="1" parent="13vMHOXOfkEj0Niq7ip8-1">
          <mxGeometry x="190" y="620" width="130" height="40" as="geometry" />
        </mxCell>
        <mxCell id="13vMHOXOfkEj0Niq7ip8-9" value="Done" style="rounded=1;whiteSpace=wrap;html=1;fontFamily=Helvetica;fontSize=12;fontColor=#000000;align=center;strokeColor=#000000;fillColor=#ffffff;" vertex="1" parent="13vMHOXOfkEj0Niq7ip8-1">
          <mxGeometry x="414" y="620" width="130" height="40" as="geometry" />
        </mxCell>
        <mxCell id="Upr7t0PPNEr8Y8i3C2K8-0" value="Members can be displayed in a custom shortlist" style="shape=callout;whiteSpace=wrap;html=1;perimeter=calloutPerimeter;position2=1;" vertex="1" parent="13vMHOXOfkEj0Niq7ip8-1">
          <mxGeometry x="40" y="190" width="150" height="90" as="geometry" />
        </mxCell>
        <mxCell id="Upr7t0PPNEr8Y8i3C2K8-1" value="Default: current day" style="shape=callout;whiteSpace=wrap;html=1;perimeter=calloutPerimeter;base=25;position2=1;" vertex="1" parent="13vMHOXOfkEj0Niq7ip8-1">
          <mxGeometry x="70" y="330" width="120" height="70" as="geometry" />
        </mxCell>
      </root>
    </mxGraphModel>
  </diagram>
  <diagram id="XdOq0WP5IJ2t7I9NkCUe" name="View/edit past events">
    <mxGraphModel dx="925" dy="621" grid="1" gridSize="10" guides="1" tooltips="1" connect="1" arrows="1" fold="1" page="1" pageScale="1" pageWidth="827" pageHeight="1169" math="0" shadow="0">
      <root>
        <mxCell id="tTohnYpVtqBp4ZgK2qlV-0" />
        <mxCell id="tTohnYpVtqBp4ZgK2qlV-1" parent="tTohnYpVtqBp4ZgK2qlV-0" />
        <mxCell id="B7AI6OwDM12Od6UPBtCU-1" value="" style="edgeStyle=orthogonalEdgeStyle;rounded=0;orthogonalLoop=1;jettySize=auto;html=1;" edge="1" parent="tTohnYpVtqBp4ZgK2qlV-1" source="tTohnYpVtqBp4ZgK2qlV-2" target="B7AI6OwDM12Od6UPBtCU-0">
          <mxGeometry relative="1" as="geometry" />
        </mxCell>
        <mxCell id="tTohnYpVtqBp4ZgK2qlV-2" value="View all events" style="rounded=0;whiteSpace=wrap;html=1;fontFamily=Helvetica;fontSize=12;fontColor=#000000;align=center;strokeColor=#000000;fillColor=#ffffff;" vertex="1" parent="tTohnYpVtqBp4ZgK2qlV-1">
          <mxGeometry x="240" y="60" width="130" height="40" as="geometry" />
        </mxCell>
        <mxCell id="5nHOdaZ8S-iqnOjRCTyu-4" style="edgeStyle=orthogonalEdgeStyle;rounded=0;orthogonalLoop=1;jettySize=auto;html=1;entryX=0;entryY=0.5;entryDx=0;entryDy=0;" edge="1" parent="tTohnYpVtqBp4ZgK2qlV-1" source="5nHOdaZ8S-iqnOjRCTyu-0" target="tTohnYpVtqBp4ZgK2qlV-2">
          <mxGeometry relative="1" as="geometry" />
        </mxCell>
        <mxCell id="5nHOdaZ8S-iqnOjRCTyu-0" value="Dashboard" style="rounded=1;whiteSpace=wrap;html=1;" vertex="1" parent="tTohnYpVtqBp4ZgK2qlV-1">
          <mxGeometry x="60" y="60" width="130" height="40" as="geometry" />
        </mxCell>
        <mxCell id="5nHOdaZ8S-iqnOjRCTyu-8" style="edgeStyle=orthogonalEdgeStyle;rounded=0;orthogonalLoop=1;jettySize=auto;html=1;entryX=0.5;entryY=0;entryDx=0;entryDy=0;" edge="1" parent="tTohnYpVtqBp4ZgK2qlV-1" source="B7AI6OwDM12Od6UPBtCU-0" target="5nHOdaZ8S-iqnOjRCTyu-7">
          <mxGeometry relative="1" as="geometry" />
        </mxCell>
        <mxCell id="B7AI6OwDM12Od6UPBtCU-0" value="View event" style="rounded=0;whiteSpace=wrap;html=1;fontFamily=Helvetica;fontSize=12;fontColor=#000000;align=center;strokeColor=#000000;fillColor=#ffffff;" vertex="1" parent="tTohnYpVtqBp4ZgK2qlV-1">
          <mxGeometry x="430" y="60" width="130" height="40" as="geometry" />
        </mxCell>
        <mxCell id="B7AI6OwDM12Od6UPBtCU-8" value="Done" style="rounded=1;whiteSpace=wrap;html=1;fontFamily=Helvetica;fontSize=12;fontColor=#000000;align=center;strokeColor=#000000;fillColor=#ffffff;" vertex="1" parent="tTohnYpVtqBp4ZgK2qlV-1">
          <mxGeometry x="650" y="180" width="130" height="40" as="geometry" />
        </mxCell>
        <mxCell id="B7AI6OwDM12Od6UPBtCU-6" value="" style="edgeStyle=orthogonalEdgeStyle;rounded=0;orthogonalLoop=1;jettySize=auto;html=1;" edge="1" parent="tTohnYpVtqBp4ZgK2qlV-1" source="B7AI6OwDM12Od6UPBtCU-2" target="B7AI6OwDM12Od6UPBtCU-5">
          <mxGeometry relative="1" as="geometry" />
        </mxCell>
        <mxCell id="B7AI6OwDM12Od6UPBtCU-2" value="&lt;div&gt;Edit event&lt;/div&gt;" style="rounded=0;whiteSpace=wrap;html=1;fontFamily=Helvetica;fontSize=12;fontColor=#000000;align=center;strokeColor=#000000;fillColor=#ffffff;" vertex="1" parent="tTohnYpVtqBp4ZgK2qlV-1">
          <mxGeometry x="435" y="300" width="120" height="40" as="geometry" />
        </mxCell>
        <mxCell id="5nHOdaZ8S-iqnOjRCTyu-5" style="edgeStyle=orthogonalEdgeStyle;rounded=0;orthogonalLoop=1;jettySize=auto;html=1;entryX=0;entryY=0.5;entryDx=0;entryDy=0;exitX=1;exitY=0.5;exitDx=0;exitDy=0;" edge="1" parent="tTohnYpVtqBp4ZgK2qlV-1" source="5nHOdaZ8S-iqnOjRCTyu-7" target="B7AI6OwDM12Od6UPBtCU-8">
          <mxGeometry relative="1" as="geometry" />
        </mxCell>
        <mxCell id="5nHOdaZ8S-iqnOjRCTyu-16" value="&lt;div&gt;No&lt;/div&gt;" style="edgeLabel;html=1;align=center;verticalAlign=middle;resizable=0;points=[];" vertex="1" connectable="0" parent="5nHOdaZ8S-iqnOjRCTyu-5">
          <mxGeometry x="0.0539" y="2" relative="1" as="geometry">
            <mxPoint as="offset" />
          </mxGeometry>
        </mxCell>
        <mxCell id="5nHOdaZ8S-iqnOjRCTyu-17" style="edgeStyle=orthogonalEdgeStyle;rounded=0;orthogonalLoop=1;jettySize=auto;html=1;entryX=0.5;entryY=1;entryDx=0;entryDy=0;" edge="1" parent="tTohnYpVtqBp4ZgK2qlV-1" source="B7AI6OwDM12Od6UPBtCU-5" target="B7AI6OwDM12Od6UPBtCU-8">
          <mxGeometry relative="1" as="geometry" />
        </mxCell>
        <mxCell id="B7AI6OwDM12Od6UPBtCU-5" value="Save event" style="rounded=0;whiteSpace=wrap;html=1;fontFamily=Helvetica;fontSize=12;fontColor=#000000;align=center;strokeColor=#000000;fillColor=#ffffff;" vertex="1" parent="tTohnYpVtqBp4ZgK2qlV-1">
          <mxGeometry x="435" y="420" width="120" height="40" as="geometry" />
        </mxCell>
        <mxCell id="5nHOdaZ8S-iqnOjRCTyu-11" value="Yes" style="edgeStyle=orthogonalEdgeStyle;rounded=0;orthogonalLoop=1;jettySize=auto;html=1;entryX=0.5;entryY=0;entryDx=0;entryDy=0;" edge="1" parent="tTohnYpVtqBp4ZgK2qlV-1" source="5nHOdaZ8S-iqnOjRCTyu-7" target="B7AI6OwDM12Od6UPBtCU-2">
          <mxGeometry relative="1" as="geometry" />
        </mxCell>
        <mxCell id="5nHOdaZ8S-iqnOjRCTyu-7" value="Created in the&lt;br&gt;past 24h?" style="rhombus;whiteSpace=wrap;html=1;" vertex="1" parent="tTohnYpVtqBp4ZgK2qlV-1">
          <mxGeometry x="430" y="160" width="130" height="80" as="geometry" />
        </mxCell>
      </root>
    </mxGraphModel>
  </diagram>
  <diagram id="9Wviv1kHQNw507t8edmd" name="Manage user lists">
    <mxGraphModel dx="786" dy="528" grid="1" gridSize="10" guides="1" tooltips="1" connect="1" arrows="1" fold="1" page="1" pageScale="1" pageWidth="827" pageHeight="1169" math="0" shadow="0">
      <root>
        <mxCell id="nQZk57ZEwS85NdZRktGf-0" />
        <mxCell id="nQZk57ZEwS85NdZRktGf-1" parent="nQZk57ZEwS85NdZRktGf-0" />
        <mxCell id="Z0U9iT13mLVn-M-5p6Iq-7" value="" style="edgeStyle=orthogonalEdgeStyle;rounded=0;orthogonalLoop=1;jettySize=auto;html=1;" edge="1" parent="nQZk57ZEwS85NdZRktGf-1" source="Z0U9iT13mLVn-M-5p6Iq-0" target="Z0U9iT13mLVn-M-5p6Iq-6">
          <mxGeometry relative="1" as="geometry" />
        </mxCell>
        <mxCell id="Z0U9iT13mLVn-M-5p6Iq-0" value="View all lists" style="rounded=0;whiteSpace=wrap;html=1;fontFamily=Helvetica;fontSize=12;fontColor=#000000;align=center;strokeColor=#000000;fillColor=#ffffff;" vertex="1" parent="nQZk57ZEwS85NdZRktGf-1">
          <mxGeometry x="240" y="60" width="130" height="40" as="geometry" />
        </mxCell>
        <mxCell id="Z0U9iT13mLVn-M-5p6Iq-9" value="View" style="edgeStyle=orthogonalEdgeStyle;rounded=0;orthogonalLoop=1;jettySize=auto;html=1;" edge="1" parent="nQZk57ZEwS85NdZRktGf-1" source="Z0U9iT13mLVn-M-5p6Iq-6" target="Z0U9iT13mLVn-M-5p6Iq-8">
          <mxGeometry relative="1" as="geometry" />
        </mxCell>
        <mxCell id="Z0U9iT13mLVn-M-5p6Iq-11" value="&lt;div&gt;Create&lt;/div&gt;" style="edgeStyle=orthogonalEdgeStyle;rounded=0;orthogonalLoop=1;jettySize=auto;html=1;entryX=0.5;entryY=0;entryDx=0;entryDy=0;" edge="1" parent="nQZk57ZEwS85NdZRktGf-1" source="Z0U9iT13mLVn-M-5p6Iq-6" target="Z0U9iT13mLVn-M-5p6Iq-4">
          <mxGeometry relative="1" as="geometry">
            <mxPoint x="515" y="180" as="targetPoint" />
          </mxGeometry>
        </mxCell>
        <mxCell id="Z0U9iT13mLVn-M-5p6Iq-6" value="Single list" style="rhombus;whiteSpace=wrap;html=1;fontFamily=Helvetica;fontSize=12;fontColor=#000000;align=center;strokeColor=#000000;fillColor=#ffffff;" vertex="1" parent="nQZk57ZEwS85NdZRktGf-1">
          <mxGeometry x="460" y="50" width="120" height="60" as="geometry" />
        </mxCell>
        <mxCell id="Z0U9iT13mLVn-M-5p6Iq-8" value="View list" style="rounded=1;whiteSpace=wrap;html=1;fontFamily=Helvetica;fontSize=12;fontColor=#000000;align=center;strokeColor=#000000;fillColor=#ffffff;" vertex="1" parent="nQZk57ZEwS85NdZRktGf-1">
          <mxGeometry x="660" y="60" width="130" height="40" as="geometry" />
        </mxCell>
        <mxCell id="Z0U9iT13mLVn-M-5p6Iq-14" style="edgeStyle=orthogonalEdgeStyle;rounded=0;orthogonalLoop=1;jettySize=auto;html=1;entryX=0.5;entryY=1;entryDx=0;entryDy=0;" edge="1" parent="nQZk57ZEwS85NdZRktGf-1" source="Z0U9iT13mLVn-M-5p6Iq-4" target="Z0U9iT13mLVn-M-5p6Iq-8">
          <mxGeometry relative="1" as="geometry" />
        </mxCell>
        <mxCell id="Z0U9iT13mLVn-M-5p6Iq-4" value="Create list" style="rounded=0;whiteSpace=wrap;html=1;fontFamily=Helvetica;fontSize=12;fontColor=#000000;align=center;strokeColor=#000000;fillColor=#ffffff;" vertex="1" parent="nQZk57ZEwS85NdZRktGf-1">
          <mxGeometry x="460" y="180" width="120" height="40" as="geometry" />
        </mxCell>
        <mxCell id="Z0U9iT13mLVn-M-5p6Iq-12" style="edgeStyle=orthogonalEdgeStyle;rounded=0;orthogonalLoop=1;jettySize=auto;html=1;entryX=0;entryY=0.5;entryDx=0;entryDy=0;" edge="1" parent="nQZk57ZEwS85NdZRktGf-1" source="Z0U9iT13mLVn-M-5p6Iq-1" target="Z0U9iT13mLVn-M-5p6Iq-0">
          <mxGeometry relative="1" as="geometry" />
        </mxCell>
        <mxCell id="Z0U9iT13mLVn-M-5p6Iq-1" value="Dashboard" style="rounded=1;whiteSpace=wrap;html=1;" vertex="1" parent="nQZk57ZEwS85NdZRktGf-1">
          <mxGeometry x="60" y="60" width="130" height="40" as="geometry" />
        </mxCell>
      </root>
    </mxGraphModel>
  </diagram>
</mxfile>
